<?xml version="1.0" encoding="UTF-8"?>
<svg width="1200pt" height="1200pt" version="1.1" viewBox="0 0 1200 1200" xmlns="http://www.w3.org/2000/svg">
 <g fill="#fff">
  <path d="m825 950h-450c-33.141-0.039062-64.91-13.223-88.344-36.656s-36.617-55.203-36.656-88.344v-450c0.039062-33.141 13.223-64.91 36.656-88.344s55.203-36.617 88.344-36.656h450c33.141 0.039062 64.91 13.223 88.344 36.656s36.617 55.203 36.656 88.344v450c-0.039062 33.141-13.223 64.91-36.656 88.344s-55.203 36.617-88.344 36.656zm-450-650c-19.883 0.023438-38.949 7.9297-53.008 21.992-14.062 14.059-21.969 33.125-21.992 53.008v450c0.023438 19.883 7.9297 38.949 21.992 53.008 14.059 14.062 33.125 21.969 53.008 21.992h450c19.883-0.023438 38.949-7.9297 53.008-21.992 14.062-14.059 21.969-33.125 21.992-53.008v-450c-0.023438-19.883-7.9297-38.949-21.992-53.008-14.059-14.062-33.125-21.969-53.008-21.992z"/>
  <path d="m1050 1050h-900v-900h900zm-850-50h800v-800h-800z"/>
  <path d="m862.5 200c-6.6289 0-12.988-2.6328-17.676-7.3242-4.6914-4.6875-7.3242-11.047-7.3242-17.676v-150c0-8.9297 4.7656-17.184 12.5-21.652 7.7344-4.4648 17.266-4.4648 25 0 7.7344 4.4688 12.5 12.723 12.5 21.652v150c0 6.6289-2.6328 12.988-7.3242 17.676-4.6875 4.6914-11.047 7.3242-17.676 7.3242z"/>
  <path d="m762.5 200c-6.6289 0-12.988-2.6328-17.676-7.3242-4.6914-4.6875-7.3242-11.047-7.3242-17.676v-100c0-8.9297 4.7656-17.184 12.5-21.652 7.7344-4.4648 17.266-4.4648 25 0 7.7344 4.4688 12.5 12.723 12.5 21.652v100c0 6.6289-2.6328 12.988-7.3242 17.676-4.6875 4.6914-11.047 7.3242-17.676 7.3242z"/>
  <path d="m650 200c-6.6289 0-12.988-2.6328-17.676-7.3242-4.6914-4.6875-7.3242-11.047-7.3242-17.676v-100c0-8.9297 4.7656-17.184 12.5-21.652 7.7344-4.4648 17.266-4.4648 25 0 7.7344 4.4688 12.5 12.723 12.5 21.652v100c0 6.6289-2.6328 12.988-7.3242 17.676-4.6875 4.6914-11.047 7.3242-17.676 7.3242z"/>
  <path d="m550 200c-6.6289 0-12.988-2.6328-17.676-7.3242-4.6914-4.6875-7.3242-11.047-7.3242-17.676v-100c0-8.9297 4.7656-17.184 12.5-21.652 7.7344-4.4648 17.266-4.4648 25 0 7.7344 4.4688 12.5 12.723 12.5 21.652v100c0 6.6289-2.6328 12.988-7.3242 17.676-4.6875 4.6914-11.047 7.3242-17.676 7.3242z"/>
  <path d="m437.5 200c-6.6289 0-12.988-2.6328-17.676-7.3242-4.6914-4.6875-7.3242-11.047-7.3242-17.676v-100c0-8.9297 4.7656-17.184 12.5-21.652 7.7344-4.4648 17.266-4.4648 25 0 7.7344 4.4688 12.5 12.723 12.5 21.652v100c0 6.6289-2.6328 12.988-7.3242 17.676-4.6875 4.6914-11.047 7.3242-17.676 7.3242z"/>
  <path d="m337.5 200c-6.6289 0-12.988-2.6328-17.676-7.3242-4.6914-4.6875-7.3242-11.047-7.3242-17.676v-150c0-8.9297 4.7656-17.184 12.5-21.652 7.7344-4.4648 17.266-4.4648 25 0 7.7344 4.4688 12.5 12.723 12.5 21.652v150c0 6.6289-2.6328 12.988-7.3242 17.676-4.6875 4.6914-11.047 7.3242-17.676 7.3242z"/>
  <path d="m337.5 1200c-6.6289 0-12.988-2.6328-17.676-7.3242-4.6914-4.6875-7.3242-11.047-7.3242-17.676v-150c0-8.9297 4.7656-17.184 12.5-21.652 7.7344-4.4648 17.266-4.4648 25 0 7.7344 4.4688 12.5 12.723 12.5 21.652v150c0 6.6289-2.6328 12.988-7.3242 17.676-4.6875 4.6914-11.047 7.3242-17.676 7.3242z"/>
  <path d="m437.5 1150c-6.6289 0-12.988-2.6328-17.676-7.3242-4.6914-4.6875-7.3242-11.047-7.3242-17.676v-100c0-8.9297 4.7656-17.184 12.5-21.652 7.7344-4.4648 17.266-4.4648 25 0 7.7344 4.4688 12.5 12.723 12.5 21.652v100c0 6.6289-2.6328 12.988-7.3242 17.676-4.6875 4.6914-11.047 7.3242-17.676 7.3242z"/>
  <path d="m550 1150c-6.6289 0-12.988-2.6328-17.676-7.3242-4.6914-4.6875-7.3242-11.047-7.3242-17.676v-100c0-8.9297 4.7656-17.184 12.5-21.652 7.7344-4.4648 17.266-4.4648 25 0 7.7344 4.4688 12.5 12.723 12.5 21.652v100c0 6.6289-2.6328 12.988-7.3242 17.676-4.6875 4.6914-11.047 7.3242-17.676 7.3242z"/>
  <path d="m650 1150c-6.6289 0-12.988-2.6328-17.676-7.3242-4.6914-4.6875-7.3242-11.047-7.3242-17.676v-100c0-8.9297 4.7656-17.184 12.5-21.652 7.7344-4.4648 17.266-4.4648 25 0 7.7344 4.4688 12.5 12.723 12.5 21.652v100c0 6.6289-2.6328 12.988-7.3242 17.676-4.6875 4.6914-11.047 7.3242-17.676 7.3242z"/>
  <path d="m762.5 1150c-6.6289 0-12.988-2.6328-17.676-7.3242-4.6914-4.6875-7.3242-11.047-7.3242-17.676v-100c0-8.9297 4.7656-17.184 12.5-21.652 7.7344-4.4648 17.266-4.4648 25 0 7.7344 4.4688 12.5 12.723 12.5 21.652v100c0 6.6289-2.6328 12.988-7.3242 17.676-4.6875 4.6914-11.047 7.3242-17.676 7.3242z"/>
  <path d="m862.5 1200c-6.6289 0-12.988-2.6328-17.676-7.3242-4.6914-4.6875-7.3242-11.047-7.3242-17.676v-150c0-8.9297 4.7656-17.184 12.5-21.652 7.7344-4.4648 17.266-4.4648 25 0 7.7344 4.4688 12.5 12.723 12.5 21.652v150c0 6.6289-2.6328 12.988-7.3242 17.676-4.6875 4.6914-11.047 7.3242-17.676 7.3242z"/>
  <path d="m175 362.5h-150c-8.9297 0-17.184-4.7656-21.652-12.5-4.4648-7.7344-4.4648-17.266 0-25 4.4688-7.7344 12.723-12.5 21.652-12.5h150c8.9297 0 17.184 4.7656 21.652 12.5 4.4648 7.7344 4.4648 17.266 0 25-4.4688 7.7344-12.723 12.5-21.652 12.5z"/>
  <path d="m175 462.5h-100c-8.9297 0-17.184-4.7656-21.652-12.5-4.4648-7.7344-4.4648-17.266 0-25 4.4688-7.7344 12.723-12.5 21.652-12.5h100c8.9297 0 17.184 4.7656 21.652 12.5 4.4648 7.7344 4.4648 17.266 0 25-4.4688 7.7344-12.723 12.5-21.652 12.5z"/>
  <path d="m175 575h-100c-8.9297 0-17.184-4.7656-21.652-12.5-4.4648-7.7344-4.4648-17.266 0-25 4.4688-7.7344 12.723-12.5 21.652-12.5h100c8.9297 0 17.184 4.7656 21.652 12.5 4.4648 7.7344 4.4648 17.266 0 25-4.4688 7.7344-12.723 12.5-21.652 12.5z"/>
  <path d="m175 675h-100c-8.9297 0-17.184-4.7656-21.652-12.5-4.4648-7.7344-4.4648-17.266 0-25 4.4688-7.7344 12.723-12.5 21.652-12.5h100c8.9297 0 17.184 4.7656 21.652 12.5 4.4648 7.7344 4.4648 17.266 0 25-4.4688 7.7344-12.723 12.5-21.652 12.5z"/>
  <path d="m175 787.5h-100c-8.9297 0-17.184-4.7656-21.652-12.5-4.4648-7.7344-4.4648-17.266 0-25 4.4688-7.7344 12.723-12.5 21.652-12.5h100c8.9297 0 17.184 4.7656 21.652 12.5 4.4648 7.7344 4.4648 17.266 0 25-4.4688 7.7344-12.723 12.5-21.652 12.5z"/>
  <path d="m175 887.5h-150c-8.9297 0-17.184-4.7656-21.652-12.5-4.4648-7.7344-4.4648-17.266 0-25 4.4688-7.7344 12.723-12.5 21.652-12.5h150c8.9297 0 17.184 4.7656 21.652 12.5 4.4648 7.7344 4.4648 17.266 0 25-4.4688 7.7344-12.723 12.5-21.652 12.5z"/>
  <path d="m1175 887.5h-150c-8.9297 0-17.184-4.7656-21.652-12.5-4.4648-7.7344-4.4648-17.266 0-25 4.4688-7.7344 12.723-12.5 21.652-12.5h150c8.9297 0 17.184 4.7656 21.652 12.5 4.4648 7.7344 4.4648 17.266 0 25-4.4688 7.7344-12.723 12.5-21.652 12.5z"/>
  <path d="m1125 787.5h-100c-8.9297 0-17.184-4.7656-21.652-12.5-4.4648-7.7344-4.4648-17.266 0-25 4.4688-7.7344 12.723-12.5 21.652-12.5h100c8.9297 0 17.184 4.7656 21.652 12.5 4.4648 7.7344 4.4648 17.266 0 25-4.4688 7.7344-12.723 12.5-21.652 12.5z"/>
  <path d="m1125 675h-100c-8.9297 0-17.184-4.7656-21.652-12.5-4.4648-7.7344-4.4648-17.266 0-25 4.4688-7.7344 12.723-12.5 21.652-12.5h100c8.9297 0 17.184 4.7656 21.652 12.5 4.4648 7.7344 4.4648 17.266 0 25-4.4688 7.7344-12.723 12.5-21.652 12.5z"/>
  <path d="m1125 575h-100c-8.9297 0-17.184-4.7656-21.652-12.5-4.4648-7.7344-4.4648-17.266 0-25 4.4688-7.7344 12.723-12.5 21.652-12.5h100c8.9297 0 17.184 4.7656 21.652 12.5 4.4648 7.7344 4.4648 17.266 0 25-4.4688 7.7344-12.723 12.5-21.652 12.5z"/>
  <path d="m1125 462.5h-100c-8.9297 0-17.184-4.7656-21.652-12.5-4.4648-7.7344-4.4648-17.266 0-25 4.4688-7.7344 12.723-12.5 21.652-12.5h100c8.9297 0 17.184 4.7656 21.652 12.5 4.4648 7.7344 4.4648 17.266 0 25-4.4688 7.7344-12.723 12.5-21.652 12.5z"/>
  <path d="m1175 362.5h-150c-8.9297 0-17.184-4.7656-21.652-12.5-4.4648-7.7344-4.4648-17.266 0-25 4.4688-7.7344 12.723-12.5 21.652-12.5h150c8.9297 0 17.184 4.7656 21.652 12.5 4.4648 7.7344 4.4648 17.266 0 25-4.4688 7.7344-12.723 12.5-21.652 12.5z"/>
 </g>
</svg>
