<?xml version="1.0" encoding="UTF-8"?>
<svg width="1200pt" height="1200pt" version="1.1" viewBox="0 0 1200 1200" xmlns="http://www.w3.org/2000/svg">
 <g fill="#fff">
  <path d="m1175 900h-706.25c-6.6289 0-12.988-2.6328-17.676-7.3242-4.6914-4.6875-7.3242-11.047-7.3242-17.676v-50c0.003906-1.668-0.33203-3.3203-0.98438-4.8594-1.6172-3.832-5.0352-6.6055-9.1172-7.4102-4.0781-0.80078-8.293 0.47656-11.242 3.4062-2.3555 2.3477-3.6719 5.5391-3.6562 8.8633v50c0 6.6289-2.6328 12.988-7.3242 17.676-4.6875 4.6914-11.047 7.3242-17.676 7.3242h-368.75c-6.6289 0-12.988-2.6328-17.676-7.3242-4.6914-4.6875-7.3242-11.047-7.3242-17.676v-387.5c0-6.6289 2.6328-12.988 7.3242-17.676 4.6875-4.6914 11.047-7.3242 17.676-7.3242h37.5c3.3203 0.011719 6.5078-1.3008 8.8516-3.6484 2.3477-2.3438 3.6602-5.5312 3.6484-8.8516v-25c0.011719-3.3164-1.3047-6.5039-3.6484-8.8516-2.3477-2.3438-5.5352-3.6602-8.8516-3.6484h-37.5c-6.6289 0-12.988-2.6328-17.676-7.3242-4.6914-4.6875-7.3242-11.047-7.3242-17.676v-137.5c0-6.6289 2.6328-12.988 7.3242-17.676 4.6875-4.6914 11.047-7.3242 17.676-7.3242h1150c6.6289 0 12.988 2.6328 17.676 7.3242 4.6914 4.6875 7.3242 11.047 7.3242 17.676v137.5c0 6.6289-2.6328 12.988-7.3242 17.676-4.6875 4.6914-11.047 7.3242-17.676 7.3242h-37.5c-3.3203-0.011719-6.5078 1.3008-8.8516 3.6484-2.3477 2.3438-3.6602 5.5312-3.6484 8.8516v25c-0.011719 3.3164 1.3047 6.5039 3.6484 8.8516 2.3477 2.3438 5.5352 3.6602 8.8516 3.6484h37.5c6.6289 0 12.988 2.6328 17.676 7.3242 4.6914 4.6875 7.3242 11.047 7.3242 17.676v387.5c0 6.6289-2.6328 12.988-7.3242 17.676-4.6875 4.6914-11.047 7.3242-17.676 7.3242zm-681.25-50h656.25v-337.5h-12.5c-16.582 0.015625-32.488-6.5664-44.211-18.289-11.723-11.723-18.305-27.629-18.289-44.211v-25c-0.011719-16.578 6.5703-32.484 18.293-44.207 11.723-11.723 27.629-18.305 44.207-18.293h12.5v-87.5h-1100v87.5h12.5c16.582-0.015625 32.488 6.5664 44.211 18.289 11.723 11.723 18.305 27.629 18.289 44.211v25c0.011719 16.578-6.5703 32.484-18.293 44.207-11.723 11.723-27.629 18.305-44.207 18.293h-12.5v337.5h318.75v-25c-0.054688-16.59 6.5352-32.512 18.297-44.215 8.8633-8.707 20.094-14.613 32.289-16.984 12.195-2.3672 24.82-1.0977 36.297 3.6562 11.301 4.7891 20.941 12.801 27.723 23.035 6.7773 10.23 10.395 22.234 10.395 34.508z"/>
  <path d="m541.83 537.5h-341.83c-6.6289 0-12.988-2.6328-17.676-7.3242-4.6914-4.6875-7.3242-11.047-7.3242-17.676v-150c0-6.6289 2.6328-12.988 7.3242-17.676 4.6875-4.6914 11.047-7.3242 17.676-7.3242h341.83c6.6328 0 12.992 2.6328 17.68 7.3242 4.6875 4.6875 7.3203 11.047 7.3203 17.676v150c0 6.6289-2.6328 12.988-7.3203 17.676-4.6875 4.6914-11.047 7.3242-17.68 7.3242zm-316.83-50h291.83v-100h-291.83z"/>
  <path d="m1e3 537.5h-341.83c-6.6328 0-12.992-2.6328-17.68-7.3242-4.6875-4.6875-7.3203-11.047-7.3203-17.676v-150c0-6.6289 2.6328-12.988 7.3203-17.676 4.6875-4.6914 11.047-7.3242 17.68-7.3242h341.83c6.6289 0 12.988 2.6328 17.676 7.3242 4.6914 4.6875 7.3242 11.047 7.3242 17.676v150c0 6.6289-2.6328 12.988-7.3242 17.676-4.6875 4.6914-11.047 7.3242-17.676 7.3242zm-316.83-50h291.83v-100h-291.83z"/>
  <path d="m118.75 875c-6.6289 0-12.988-2.6328-17.676-7.3242-4.6914-4.6875-7.3242-11.047-7.3242-17.676v-75c0-8.9297 4.7656-17.184 12.5-21.652 7.7344-4.4648 17.266-4.4648 25 0 7.7344 4.4688 12.5 12.723 12.5 21.652v75c0 6.6289-2.6328 12.988-7.3242 17.676-4.6875 4.6914-11.047 7.3242-17.676 7.3242z"/>
  <path d="m206.25 875c-6.6289 0-12.988-2.6328-17.676-7.3242-4.6914-4.6875-7.3242-11.047-7.3242-17.676v-75c0-8.9297 4.7656-17.184 12.5-21.652 7.7344-4.4648 17.266-4.4648 25 0 7.7344 4.4688 12.5 12.723 12.5 21.652v75c0 6.6289-2.6328 12.988-7.3242 17.676-4.6875 4.6914-11.047 7.3242-17.676 7.3242z"/>
  <path d="m293.75 875c-6.6289 0-12.988-2.6328-17.676-7.3242-4.6914-4.6875-7.3242-11.047-7.3242-17.676v-75c0-8.9297 4.7656-17.184 12.5-21.652 7.7344-4.4648 17.266-4.4648 25 0 7.7344 4.4688 12.5 12.723 12.5 21.652v75c0 6.6289-2.6328 12.988-7.3242 17.676-4.6875 4.6914-11.047 7.3242-17.676 7.3242z"/>
  <path d="m556.25 875c-6.6289 0-12.988-2.6328-17.676-7.3242-4.6914-4.6875-7.3242-11.047-7.3242-17.676v-75c0-8.9297 4.7656-17.184 12.5-21.652 7.7344-4.4648 17.266-4.4648 25 0 7.7344 4.4688 12.5 12.723 12.5 21.652v75c0 6.6289-2.6328 12.988-7.3242 17.676-4.6875 4.6914-11.047 7.3242-17.676 7.3242z"/>
  <path d="m643.75 875c-6.6289 0-12.988-2.6328-17.676-7.3242-4.6914-4.6875-7.3242-11.047-7.3242-17.676v-75c0-8.9297 4.7656-17.184 12.5-21.652 7.7344-4.4648 17.266-4.4648 25 0 7.7344 4.4688 12.5 12.723 12.5 21.652v75c0 6.6289-2.6328 12.988-7.3242 17.676-4.6875 4.6914-11.047 7.3242-17.676 7.3242z"/>
  <path d="m731.25 875c-6.6289 0-12.988-2.6328-17.676-7.3242-4.6914-4.6875-7.3242-11.047-7.3242-17.676v-75c0-8.9297 4.7656-17.184 12.5-21.652 7.7344-4.4648 17.266-4.4648 25 0 7.7344 4.4688 12.5 12.723 12.5 21.652v75c0 6.6289-2.6328 12.988-7.3242 17.676-4.6875 4.6914-11.047 7.3242-17.676 7.3242z"/>
  <path d="m818.75 875c-6.6289 0-12.988-2.6328-17.676-7.3242-4.6914-4.6875-7.3242-11.047-7.3242-17.676v-75c0-8.9297 4.7656-17.184 12.5-21.652 7.7344-4.4648 17.266-4.4648 25 0 7.7344 4.4688 12.5 12.723 12.5 21.652v75c0 6.6289-2.6328 12.988-7.3242 17.676-4.6875 4.6914-11.047 7.3242-17.676 7.3242z"/>
  <path d="m906.25 875c-6.6289 0-12.988-2.6328-17.676-7.3242-4.6914-4.6875-7.3242-11.047-7.3242-17.676v-75c0-8.9297 4.7656-17.184 12.5-21.652 7.7344-4.4648 17.266-4.4648 25 0 7.7344 4.4688 12.5 12.723 12.5 21.652v75c0 6.6289-2.6328 12.988-7.3242 17.676-4.6875 4.6914-11.047 7.3242-17.676 7.3242z"/>
  <path d="m993.75 875c-6.6289 0-12.988-2.6328-17.676-7.3242-4.6914-4.6875-7.3242-11.047-7.3242-17.676v-75c0-8.9297 4.7656-17.184 12.5-21.652 7.7344-4.4648 17.266-4.4648 25 0 7.7344 4.4688 12.5 12.723 12.5 21.652v75c0 6.6289-2.6328 12.988-7.3242 17.676-4.6875 4.6914-11.047 7.3242-17.676 7.3242z"/>
  <path d="m1081.2 875c-6.6289 0-12.988-2.6328-17.676-7.3242-4.6914-4.6875-7.3242-11.047-7.3242-17.676v-75c0-8.9297 4.7656-17.184 12.5-21.652 7.7344-4.4648 17.266-4.4648 25 0 7.7344 4.4688 12.5 12.723 12.5 21.652v75c0 6.6289-2.6328 12.988-7.3242 17.676-4.6875 4.6914-11.047 7.3242-17.676 7.3242z"/>
 </g>
</svg>
