<?xml version="1.0" encoding="UTF-8"?>
<svg width="1200pt" height="1200pt" version="1.1" viewBox="0 0 1200 1200" xmlns="http://www.w3.org/2000/svg">
 <g fill="#fff">
  <path d="m48 840v144c0 35.008 13.906 68.582 38.66 93.34 24.758 24.754 58.332 38.66 93.34 38.66h840c35.008 0 68.582-13.906 93.34-38.66 24.754-24.758 38.66-58.332 38.66-93.34v-144c0-35.008-13.906-68.582-38.66-93.34-24.758-24.754-58.332-38.66-93.34-38.66h-134.52v-432c0-12.863-6.8633-24.746-18-31.176-11.141-6.4336-24.863-6.4336-36 0-11.141 6.4297-18 18.312-18 31.176v432h-426.96v-432c0-12.863-6.8594-24.746-18-31.176-11.137-6.4336-24.859-6.4336-36 0-11.137 6.4297-18 18.312-18 31.176v432h-134.52c-35.008 0-68.582 13.906-93.34 38.66-24.754 24.758-38.66 58.332-38.66 93.34zm72 0c0-15.914 6.3203-31.176 17.574-42.426 11.25-11.254 26.512-17.574 42.426-17.574h840c15.914 0 31.176 6.3203 42.426 17.574 11.254 11.25 17.574 26.512 17.574 42.426v144c0 15.914-6.3203 31.176-17.574 42.426-11.25 11.254-26.512 17.574-42.426 17.574h-840c-15.914 0-31.176-6.3203-42.426-17.574-11.254-11.25-17.574-26.512-17.574-42.426z"/>
  <path d="m254.88 149.64c-6.75-6.7422-15.898-10.527-25.438-10.527-9.543 0-18.691 3.7852-25.441 10.527-28.551 28.691-44.578 67.523-44.578 108s16.027 79.305 44.578 108c9.0586 8.7344 22.023 12.105 34.188 8.8906 12.168-3.2188 21.773-12.555 25.332-24.625 3.5586-12.07 0.55469-25.125-7.918-34.426l-0.96094-0.96094c-15.141-15.203-23.641-35.785-23.641-57.238 0-21.457 8.5-42.039 23.641-57.242 6.6289-6.6953 10.367-15.727 10.41-25.148 0.046875-9.4258-3.6055-18.488-10.172-25.25z"/>
  <path d="m148.56 94.441c-6.75-6.7422-15.898-10.531-25.438-10.531-9.543 0-18.691 3.7891-25.441 10.531-43.25 43.348-67.539 102.08-67.539 163.32 0 61.234 24.289 119.97 67.539 163.32 6.6602 7.1484 15.938 11.281 25.703 11.453 9.7656 0.17188 19.184-3.6289 26.09-10.539 6.9102-6.9062 10.711-16.324 10.539-26.09s-4.3047-19.043-11.453-25.703c-29.758-29.828-46.469-70.242-46.469-112.38 0-42.137 16.711-82.551 46.469-112.38 6.7812-6.7578 10.59-15.934 10.59-25.5 0-9.5703-3.8086-18.746-10.59-25.5z"/>
  <path d="m942.96 317.52c-8.2266 9.6289-10.789 22.871-6.7461 34.875 4.043 12 14.098 20.996 26.473 23.688 12.375 2.6875 25.254-1.3203 33.914-10.562 28.52-28.707 44.527-67.531 44.527-108 0-40.465-16.008-79.289-44.527-108-9.1914-8.5625-22.176-11.715-34.27-8.3242-12.094 3.3945-21.543 12.844-24.934 24.938-3.3945 12.094-0.24219 25.078 8.3203 34.266 15.176 15.211 23.699 35.816 23.699 57.301s-8.5234 42.094-23.699 57.301z"/>
  <path d="m1102.3 94.441c-9.1875-8.5625-22.176-11.719-34.27-8.3242-12.09 3.3906-21.543 12.844-24.934 24.934-3.3945 12.094-0.23828 25.082 8.3242 34.27 29.758 29.828 46.469 70.246 46.469 112.38 0 42.137-16.711 82.551-46.469 112.38-8.5625 9.1914-11.719 22.176-8.3242 34.27 3.3906 12.094 12.844 21.543 24.934 24.938 12.094 3.3906 25.082 0.23828 34.27-8.3242 43.211-43.348 67.477-102.05 67.477-163.26 0-61.203-24.266-119.91-67.477-163.26z"/>
  <path d="m600 996c9.5469 0 18.703-3.793 25.457-10.543 6.75-6.7539 10.543-15.91 10.543-25.457v-102c0-12.863-6.8633-24.746-18-31.176-11.137-6.4336-24.863-6.4336-36 0-11.137 6.4297-18 18.312-18 31.176v102c0 9.5469 3.793 18.703 10.543 25.457 6.7539 6.75 15.91 10.543 25.457 10.543z"/>
  <path d="m456 996c9.5469 0 18.703-3.793 25.457-10.543 6.75-6.7539 10.543-15.91 10.543-25.457v-102c0-12.863-6.8633-24.746-18-31.176-11.137-6.4336-24.863-6.4336-36 0-11.137 6.4297-18 18.312-18 31.176v102c0 9.5469 3.793 18.703 10.543 25.457 6.7539 6.75 15.91 10.543 25.457 10.543z"/>
  <path d="m744 996c9.5469 0 18.703-3.793 25.457-10.543 6.75-6.7539 10.543-15.91 10.543-25.457v-102c0-12.863-6.8633-24.746-18-31.176-11.137-6.4336-24.863-6.4336-36 0-11.137 6.4297-18 18.312-18 31.176v102c0 9.5469 3.793 18.703 10.543 25.457 6.7539 6.75 15.91 10.543 25.457 10.543z"/>
 </g>
</svg>
