<?xml version="1.0" encoding="UTF-8" standalone="no"?>
<svg
   width="1200pt"
   height="1200pt"
   version="1.1"
   viewBox="0 0 1200 1200"
   id="svg114"
   sodipodi:docname="net-icon5.svg"
   inkscape:version="1.1.2 (0a00cf5339, 2022-02-04)"
   xmlns:inkscape="http://www.inkscape.org/namespaces/inkscape"
   xmlns:sodipodi="http://sodipodi.sourceforge.net/DTD/sodipodi-0.dtd"
   xmlns="http://www.w3.org/2000/svg"
   xmlns:svg="http://www.w3.org/2000/svg">
  <defs
     id="defs118" />
  <sodipodi:namedview
     id="namedview116"
     pagecolor="#ffffff"
     bordercolor="#666666"
     borderopacity="1.0"
     inkscape:pageshadow="2"
     inkscape:pageopacity="0.0"
     inkscape:pagecheckerboard="true"
     inkscape:document-units="pt"
     showgrid="false"
     inkscape:zoom="0.51574601"
     inkscape:cx="507.03252"
     inkscape:cy="850.22471"
     inkscape:window-width="2487"
     inkscape:window-height="1376"
     inkscape:window-x="73"
     inkscape:window-y="27"
     inkscape:window-maximized="1"
     inkscape:current-layer="g112" />
  <g
     fill="#fff"
     id="g112">
    <path
       d="m 644.5,952.5 h -397 V 552 C 247.5,524.5 220,500 192,500 H 44.5 C 17,500 0,524.5 0,552 v 600 c 0,27.5 17,48 44.5,48 h 600 c 27.5,0 55.5,-20.5 55.5,-48 v -147.5 c 0,-27.5 -27.5,-52 -55.5,-52 z"
       id="path108"
       sodipodi:nodetypes="scssssssssss" />
    <path
       d="M 1155,0 H 555 c -27.5,0 -55,20.5 -55,48 v 147.5 c 0,27.5 27.5,52 55,52 H 952.5 V 648 c 0,27.5 27.5,52 55,52 H 1155 c 27.5,0 45,-24.5 45,-52 V 48 c 0,-27.5 -17,-48 -45,-48 z"
       id="path110"
       sodipodi:nodetypes="ssssscssssss" />
  </g>
</svg>
