<?xml version="1.0" encoding="UTF-8" standalone="no"?>
<svg
   width="936.0011pt"
   height="936.0011pt"
   version="1.1"
   viewBox="0 0 936.0011 936.0011"
   id="svg2921"
   sodipodi:docname="cpu-icon-symbolic.svg"
   inkscape:version="1.2.2 (b0a8486541, 2022-12-01)"
   xmlns:inkscape="http://www.inkscape.org/namespaces/inkscape"
   xmlns:sodipodi="http://sodipodi.sourceforge.net/DTD/sodipodi-0.dtd"
   xmlns="http://www.w3.org/2000/svg"
   xmlns:svg="http://www.w3.org/2000/svg">
  <defs
     id="defs2925" />
  <sodipodi:namedview
     id="namedview2923"
     pagecolor="#ffffff"
     bordercolor="#666666"
     borderopacity="1.0"
     inkscape:pageshadow="2"
     inkscape:pageopacity="0.0"
     inkscape:pagecheckerboard="true"
     inkscape:document-units="pt"
     showgrid="false"
     fit-margin-top="0"
     fit-margin-left="0"
     fit-margin-right="0"
     fit-margin-bottom="0"
     inkscape:zoom="0.545625"
     inkscape:cx="760.59565"
     inkscape:cy="648.79725"
     inkscape:window-width="1880"
     inkscape:window-height="979"
     inkscape:window-x="35"
     inkscape:window-y="32"
     inkscape:window-maximized="0"
     inkscape:current-layer="svg2921"
     inkscape:showpageshadow="2"
     inkscape:deskcolor="#d1d1d1" />
  <g
     fill="#ffffff"
     id="g2919"
     transform="translate(-132,-131.999)"
     style="stroke-width:1;stroke-miterlimit:4;stroke-dasharray:none;fill:#000000;fill-opacity:1">
    <path
       d="M 738,420 H 462 c -11.141,0 -21.82,4.4258 -29.699,12.301 C 424.426,440.1799 420,450.86 420,462 v 276 c 0,11.141 4.4258,21.82 12.301,29.699 C 440.1799,775.574 450.86,780 462,780 h 276 c 11.141,0 21.82,-4.4258 29.699,-12.301 C 775.574,759.8201 780,749.14 780,738 V 462 c 0,-11.141 -4.4258,-21.82 -12.301,-29.699 C 759.8201,424.426 749.14,420 738,420 Z M 696,696 H 504 V 504 h 192 z"
       id="path2915"
       style="stroke-width:1;stroke-miterlimit:4;stroke-dasharray:none;fill:#000000;fill-opacity:1" />
    <path
       d="m 1026,429.6 c 15.004,0 28.871,-8.0078 36.375,-21 7.5,-12.996 7.5,-29.008 0,-42 -7.5039,-12.996 -21.371,-21 -36.375,-21 h -91.199 c -10.719,-38.445 -40.758,-68.484 -79.199,-79.203 v -92.398 c 0,-15.004 -8.0078,-28.871 -21,-36.375 -12.996,-7.5 -29.008,-7.5 -42,0 -12.996,7.5039 -21,21.371 -21,36.375 v 87.602 h -58.801 v -87.602 c 0,-15.004 -8.0078,-28.871 -21,-36.375 -12.996,-7.5 -29.008,-7.5 -42,0 -12.996,7.5039 -21,21.371 -21,36.375 v 87.602 h -57.602 v -87.602 c 0,-15.004 -8.0039,-28.871 -21,-36.375 -12.992,-7.5 -29.004,-7.5 -42,0 -12.992,7.5039 -21,21.371 -21,36.375 v 87.602 h -57.598 v -87.602 c 0,-15.004 -8.0078,-28.871 -21,-36.375 -12.996,-7.5 -29.008,-7.5 -42,0 -12.996,7.5039 -21,21.371 -21,36.375 v 91.199 c -38.445,10.719 -68.484,40.758 -79.203,79.199 H 174 c -15.004,0 -28.871,8.0078 -36.375,21 -7.5,12.996 -7.5,29.008 0,42 7.5039,12.996 21.371,21 36.375,21 h 87.602 v 57.602 H 174 c -15.004,0 -28.871,8.0039 -36.375,21 -7.5,12.996 -7.5,29.004 0,42 7.5039,12.996 21.371,21 36.375,21 h 87.602 v 57.602 H 174 c -15.004,0 -28.871,8.0039 -36.375,21 -7.5,12.992 -7.5,29.004 0,42 7.5039,12.992 21.371,21 36.375,21 h 87.602 v 57.602 L 174,769.19909 c -15.004,0 -28.871,8.0078 -36.375,21 -7.5,12.996 -7.5,29.008 0,42 7.5039,12.996 21.371,21 36.375,21 h 91.199 c 10.719,38.445 40.758,68.484 79.199,79.199 v 91.20301 c 0,15.004 8.0078,28.867 21,36.371 12.996,7.5039 29.008,7.5039 42,0 12.996,-7.5039 21,-21.367 21,-36.371 V 938.39809 H 486 v 87.60201 c 0,15.004 8.0039,28.871 21,36.375 12.996,7.5 29.004,7.5 42,0 12.996,-7.5039 21,-21.371 21,-36.375 v -87.60201 h 57.602 v 87.60201 c 0,15.004 8.0039,28.871 21,36.375 12.992,7.5 29.004,7.5 42,0 12.992,-7.5039 21,-21.371 21,-36.375 v -87.60201 h 57.602 v 87.60201 H 769.2 c 0,15.004 8.0078,28.871 21,36.375 12.996,7.5 29.008,7.5 42,0 12.996,-7.5039 21,-21.371 21,-36.375 v -91.19901 c 38.445,-10.719 68.484,-40.758 79.199,-79.199 h 91.203 c 15.004,0 28.867,-8.0078 36.371,-21 7.5039,-12.996 7.5039,-29.008 0,-42 -7.5039,-12.996 -21.367,-21 -36.371,-21 h -85.203 v -58.801 h 87.602 c 15.004,0 28.871,-8.0078 36.375,-21 7.5,-12.996 7.5,-29.008 0,-42 -7.5039,-12.996 -21.371,-21 -36.375,-21 h -87.602 v -57.602 h 87.602 c 15.004,0 28.871,-8.0039 36.375,-21 7.5,-12.992 7.5,-29.004 0,-42 -7.5039,-12.992 -21.371,-21 -36.375,-21 h -87.602 v -57.598 z m -171.6,396 c 0,7.9531 -3.1602,15.586 -8.7852,21.211 -5.625,5.625 -13.258,8.7891 -21.215,8.7891 h -448.8 c -7.957,0 -15.59,-3.1641 -21.215,-8.7891 -5.625,-5.625 -8.7852,-13.258 -8.7852,-21.211 v -450 c 0,-7.957 3.1602,-15.59 8.7852,-21.215 5.625,-5.625 13.258,-8.7852 21.215,-8.7852 h 448.8 c 7.957,0 15.59,3.1602 21.215,8.7852 5.625,5.625 8.7852,13.258 8.7852,21.215 z"
       id="path2917"
       style="stroke-width:1;stroke-miterlimit:4;stroke-dasharray:none;fill:#000000;fill-opacity:1" />
  </g>
</svg>
