<?xml version="1.0" encoding="UTF-8" standalone="no"?>
<svg
   width="1300pt"
   height="1300pt"
   version="1.1"
   viewBox="0 0 1300 1300"
   id="svg3085"
   sodipodi:docname="mem-icon-symbolic.svg"
   inkscape:version="1.2.2 (b0a8486541, 2022-12-01)"
   xmlns:inkscape="http://www.inkscape.org/namespaces/inkscape"
   xmlns:sodipodi="http://sodipodi.sourceforge.net/DTD/sodipodi-0.dtd"
   xmlns="http://www.w3.org/2000/svg"
   xmlns:svg="http://www.w3.org/2000/svg">
  <defs
     id="defs3089" />
  <sodipodi:namedview
     id="namedview3087"
     pagecolor="#ffffff"
     bordercolor="#666666"
     borderopacity="1.0"
     inkscape:pageshadow="2"
     inkscape:pageopacity="0.0"
     inkscape:pagecheckerboard="true"
     inkscape:document-units="pt"
     showgrid="false"
     inkscape:zoom="0.275"
     inkscape:cx="334.54545"
     inkscape:cy="916.36364"
     inkscape:window-width="1880"
     inkscape:window-height="979"
     inkscape:window-x="35"
     inkscape:window-y="32"
     inkscape:window-maximized="0"
     inkscape:current-layer="svg3085"
     inkscape:showpageshadow="2"
     inkscape:deskcolor="#d1d1d1" />
  <path
     d="m 817.51529,578.93372 v -337.392 c 0,-15.84 -12.67411,-30.09731 -30.09732,-30.09731 h -335.808 c -15.84,0 -30.09732,12.67409 -30.09732,30.0973 l 0.005,337.392 c 0,15.84 12.67411,30.09732 30.09732,30.09732 h 337.392 c 15.83472,0 28.50936,-14.25732 28.50936,-30.09732 z m -292.392,-75.09732 v -187.2 h 187.2 v 187.2 z m 292.392,580.392 v -337.392 c 0,-15.84 -12.67411,-30.09732 -30.09732,-30.09732 l -335.808,0.006 c -15.84,0 -30.09732,12.67411 -30.09732,30.09732 l 0.005,337.392 c 0,15.84 12.67411,30.0973 30.09732,30.0973 h 337.392 c 15.83472,0 28.50936,-12.6741 28.50936,-30.0973 z m -290.892,-75.0973 V 821.93108 h 185.7 V 1009.1311 Z M 260.88329,56.307093 V 1260.699 c 0,15.84 12.67411,30.0974 30.09732,30.0974 h 661.824 c 15.84,0 30.09732,-12.6741 30.09732,-30.0974 v -159.2451 h 81.52537 c 15.84,0 30.0973,-27.6741 30.0973,-45.0973 0,-15.84 -11.5981,-45.0973 -30.0973,-45.0973 h -81.52537 v -36.43466 h 81.52537 c 15.84,0 30.0973,-27.67411 30.0973,-45.09732 0,-15.84 -12.6741,-45.09732 -30.0973,-45.09732 h -81.52537 v -36.43464 h 81.52537 c 15.84,0 30.0973,-27.67411 30.0973,-45.09732 0,-15.84 -12.6741,-45.09732 -30.0973,-45.09732 h -81.52537 v -178.44 h 81.52537 c 15.84,0 30.0973,-27.67411 30.0973,-45.09732 0,-17.42268 -12.9617,-41.94451 -30.0973,-45.09732 h -81.52537 v -36.43464 h 81.52537 c 15.84,0 30.0973,-27.67411 30.0973,-45.09732 0,-17.42268 -12.9617,-41.94451 -30.0973,-45.09732 h -81.52537 v -36.43464 h 81.52537 c 15.84,0 30.0973,-27.67411 30.0973,-45.09732 0,-17.42268 -12.9617,-48.25012 -30.0973,-45.09732 H 982.90193 V 41.301922 c 0,-15.84 -12.67411,-30.09732 -30.09732,-30.09732 h -661.824 c -17.42268,0 -30.09732,12.67409 -30.09732,30.09732 z m 618.408,60.097317 V 1185.6044 h -513.216 V 114.82041 h 513.216 z"
     fill="#ffffff"
     id="path3083"
     style="stroke-width:1.32;fill:#000000;fill-opacity:1"
     sodipodi:nodetypes="csssccssccccccccsccccssccccccccsssscsssccsssccsssccsssccsssccssscssssccccccc" />
</svg>
