<?xml version="1.0" encoding="UTF-8"?>
<svg width="1200pt" height="1200pt" version="1.1" viewBox="0 0 1200 1200" xmlns="http://www.w3.org/2000/svg">
 <g fill="#333">
  <path d="m600 0c-215.9 0-390.94 30.73-390.94 68.676l94.766 843.89c0 37.945 132.61 68.676 296.17 68.676s296.17-30.73 296.17-68.676l94.766-843.89c0-37.945-175.04-68.676-390.94-68.676z"/>
  <path d="m600 1015.8c-282.31 0-517.96-117.83-573.47-274.8-8.1367 22.934-12.422 46.703-12.422 71.074 0.003906 191.11 262.31 345.89 585.89 345.89s585.89-154.78 585.89-345.89c0-24.371-4.2852-48.145-12.422-71.074-55.508 156.97-291.15 274.8-573.46 274.8z"/>
 </g>
</svg>
